<svg width="343" height="259" viewBox="0 0 343 259" fill="none" xmlns="http://www.w3.org/2000/svg">
<g clip-path="url(#clip0_678_1565)">
<mask id="mask0_678_1565" style="mask-type:luminance" maskUnits="userSpaceOnUse" x="0" y="0" width="343" height="259">
<path d="M343 0H0V259H343V0Z" fill="white"/>
</mask>
<g mask="url(#mask0_678_1565)">
<path d="M254.019 238.223H247.161V238.421H254.019V238.223Z" fill="#EBEBEB"/>
<path d="M68.1151 230.086H34.0308V230.284H68.1151V230.086Z" fill="#EBEBEB"/>
<path d="M80.1414 230.086H75.1465V230.284H80.1414V230.086Z" fill="#EBEBEB"/>
<path d="M170.313 233.413H96.3833V233.611H170.313V233.413Z" fill="#EBEBEB"/>
<path d="M183.878 58.9668H71.832V223.107H183.878V58.9668Z" fill="#F0F0F0"/>
<path d="M179.916 64.1394H75.7856V94.4569H179.916V64.1394Z" fill="#E0E0E0"/>
<path d="M81.7044 69.0439H75.7856V94.4494H81.7044V69.0439Z" fill="#EBEBEB"/>
<path d="M110.311 69.0439H104.393V94.4494H110.311V69.0439Z" fill="#EBEBEB"/>
<path d="M142.779 68.4055L136.947 69.4101L141.266 94.4467L147.099 93.4422L142.779 68.4055Z" fill="#EBEBEB"/>
<path d="M89.0355 72.395H83.1167V94.4569H89.0355V72.395Z" fill="#EBEBEB"/>
<path d="M102.633 72.395H96.7139V94.4569H102.633V72.395Z" fill="#EBEBEB"/>
<path d="M136.954 72.395H131.036V94.4569H136.954V72.395Z" fill="#EBEBEB"/>
<path d="M118.086 71.6294L112.309 72.9123L117.099 94.4488L122.877 93.1659L118.086 71.6294Z" fill="#EBEBEB"/>
<path d="M94.1497 67.7825H91.1899V94.4494H94.1497V67.7825Z" fill="#EBEBEB"/>
<path d="M129.331 67.7825H126.372V94.4494H129.331V67.7825Z" fill="#EBEBEB"/>
<path d="M75.7939 129.569H179.925V99.2512H75.7939V129.569Z" fill="#E0E0E0"/>
<path d="M173.998 129.569H179.916V104.164H173.998V129.569Z" fill="#EBEBEB"/>
<path d="M145.398 129.569H151.317V104.164H145.398V129.569Z" fill="#EBEBEB"/>
<path d="M108.612 128.559L114.445 129.564L118.764 104.528L112.932 103.523L108.612 128.559Z" fill="#EBEBEB"/>
<path d="M166.667 129.569H172.585V107.506H166.667V129.569Z" fill="#EBEBEB"/>
<path d="M153.077 129.569H158.995V107.506H153.077V129.569Z" fill="#EBEBEB"/>
<path d="M118.756 129.569H124.675V107.506H118.756V129.569Z" fill="#EBEBEB"/>
<path d="M132.853 128.279L138.631 129.563L143.421 108.026L137.643 106.743L132.853 128.279Z" fill="#EBEBEB"/>
<path d="M161.552 129.569H164.511V102.902H161.552V129.569Z" fill="#EBEBEB"/>
<path d="M126.379 129.569H129.339V102.902H126.379V129.569Z" fill="#EBEBEB"/>
<path d="M81.7044 104.164H75.7856V129.568H81.7044V104.164Z" fill="#EBEBEB"/>
<path d="M89.0355 107.506H83.1167V129.569H89.0355V107.506Z" fill="#EBEBEB"/>
<path d="M102.633 107.506H96.7139V129.569H102.633V107.506Z" fill="#EBEBEB"/>
<path d="M94.1497 102.902H91.1899V129.569H94.1497V102.902Z" fill="#EBEBEB"/>
<path d="M179.916 134.371H75.7856V164.688H179.916V134.371Z" fill="#E0E0E0"/>
<path d="M141.476 139.275H135.558V164.681H141.476V139.275Z" fill="#EBEBEB"/>
<path d="M173.949 138.635L168.116 139.64L172.435 164.676L178.268 163.671L173.949 138.635Z" fill="#EBEBEB"/>
<path d="M120.2 142.626H114.281V164.688H120.2V142.626Z" fill="#EBEBEB"/>
<path d="M133.798 142.626H127.879V164.688H133.798V142.626Z" fill="#EBEBEB"/>
<path d="M168.117 142.626H162.199V164.688H168.117V142.626Z" fill="#EBEBEB"/>
<path d="M149.252 141.854L143.475 143.137L148.265 164.673L154.043 163.39L149.252 141.854Z" fill="#EBEBEB"/>
<path d="M125.314 138.014H122.354V164.681H125.314V138.014Z" fill="#EBEBEB"/>
<path d="M160.495 138.014H157.536V164.681H160.495V138.014Z" fill="#EBEBEB"/>
<path d="M105.893 138.641L100.06 139.645L104.38 164.682L110.212 163.677L105.893 138.641Z" fill="#EBEBEB"/>
<path d="M100.06 142.626H94.1416V164.688H100.06V142.626Z" fill="#EBEBEB"/>
<path d="M81.1978 141.861L75.4204 143.144L80.2104 164.681L85.9884 163.398L81.1978 141.861Z" fill="#EBEBEB"/>
<path d="M92.4444 138.014H89.4854V164.681H92.4444V138.014Z" fill="#EBEBEB"/>
<path d="M52.4971 223.542H71.8316V58.9749H52.4971V223.542Z" fill="#E0E0E0"/>
<path d="M249.458 219.244H233.035L241.668 148.958C241.875 147.489 242.598 146.142 243.706 145.156C244.815 144.169 246.238 143.608 247.722 143.572H319.347L308.843 219.212L249.458 219.244Z" fill="#F5F5F5"/>
<path d="M301.542 219.244H317.965L326.607 148.958C326.712 148.282 326.668 147.591 326.476 146.935C326.285 146.278 325.952 145.672 325.5 145.158C325.049 144.644 324.489 144.236 323.862 143.962C323.235 143.688 322.556 143.555 321.872 143.572H316.229C314.748 143.618 313.33 144.182 312.224 145.166C311.117 146.151 310.392 147.493 310.176 148.958L301.542 219.244Z" fill="#F0F0F0"/>
<path d="M295.498 219.133L298.473 185.15C298.536 184.413 298.85 183.719 299.363 183.185C299.875 182.651 300.556 182.309 301.29 182.216L302.513 182.059C303.501 181.935 304.416 181.476 305.104 180.758C305.793 180.04 306.213 179.107 306.294 178.116L306.838 171.918C306.892 171.318 306.82 170.712 306.626 170.141C306.433 169.569 306.123 169.045 305.715 168.6C305.308 168.155 304.812 167.799 304.259 167.556C303.706 167.313 303.11 167.188 302.505 167.188H329.953C330.556 167.188 331.154 167.313 331.707 167.556C332.259 167.799 332.755 168.155 333.162 168.6C333.57 169.045 333.88 169.569 334.073 170.141C334.267 170.712 334.339 171.318 334.285 171.918L333.741 178.116C333.66 179.107 333.24 180.04 332.551 180.758C331.863 181.476 330.948 181.935 329.961 182.059L328.737 182.216C328.003 182.311 327.324 182.653 326.811 183.187C326.299 183.72 325.984 184.413 325.92 185.15L322.945 219.133C322.839 220.328 322.289 221.44 321.404 222.249C320.519 223.059 319.363 223.509 318.163 223.51H290.715C291.915 223.509 293.071 223.059 293.956 222.249C294.841 221.44 295.391 220.328 295.498 219.133Z" fill="#E6E6E6"/>
<path d="M219.959 176.674C219.741 174.094 218.562 171.69 216.655 169.938C214.748 168.185 212.251 167.212 209.66 167.212H233.556C236.14 167.222 238.627 168.199 240.526 169.951C242.425 171.702 243.598 174.1 243.815 176.674L246.183 203.608H222.318L219.959 176.674Z" fill="#E6E6E6"/>
<path d="M199.046 167.243H209.652C212.243 167.244 214.739 168.216 216.647 169.969C218.554 171.721 219.733 174.125 219.951 176.705L222.318 203.64H279.233L281.601 176.705C281.816 174.131 282.989 171.732 284.888 169.98C286.787 168.228 289.275 167.252 291.86 167.243H302.474C303.078 167.242 303.675 167.368 304.227 167.611C304.78 167.854 305.276 168.21 305.683 168.655C306.091 169.1 306.401 169.625 306.595 170.196C306.788 170.767 306.86 171.373 306.807 171.974L306.262 178.171C306.181 179.163 305.761 180.095 305.072 180.814C304.384 181.531 303.469 181.991 302.482 182.114L301.258 182.272C300.524 182.365 299.843 182.707 299.331 183.24C298.818 183.774 298.504 184.468 298.441 185.205L295.498 219.134C295.391 220.328 294.842 221.44 293.957 222.25C293.072 223.059 291.916 223.509 290.715 223.51H210.836C209.636 223.509 208.48 223.059 207.595 222.25C206.71 221.44 206.16 220.328 206.054 219.134L203.079 185.15C203.013 184.413 202.698 183.721 202.186 183.188C201.673 182.655 200.995 182.312 200.261 182.216L199.038 182.059C198.05 181.935 197.135 181.475 196.446 180.757C195.756 180.04 195.334 179.108 195.25 178.116L194.713 171.919C194.668 171.322 194.745 170.723 194.942 170.158C195.139 169.593 195.451 169.075 195.858 168.636C196.265 168.197 196.758 167.847 197.307 167.607C197.855 167.368 198.447 167.243 199.046 167.243Z" fill="#F0F0F0"/>
<path d="M73.2519 50.7742C73.2519 50.7742 72.3763 45.0103 76.5827 41.3123C80.7885 37.6142 80.418 35.4222 79.2102 35.1384C78.003 34.8545 76.9063 38.5446 75.0593 39.5618C75.0593 39.5618 74.9964 34.2946 76.8742 32.3628C78.7526 30.431 79.7394 25.424 77.948 25.3373C76.156 25.2506 75.9825 28.3021 75.5805 30.4705C75.1779 32.6388 73.213 35.6824 73.213 35.6824C73.213 35.6824 72.8258 30.9514 71.6347 29.0354C70.4429 27.1193 73.6545 22.6643 72.4239 20.7325C71.1926 18.8007 68.959 22.483 69.1406 26.6383C69.3221 30.7937 72.1003 35.2251 71.4531 39.5618C71.4531 39.5618 70.2299 36.5103 69.1325 36.2343C68.0359 35.9584 66.9231 33.9477 66.1892 33.1987C65.4552 32.4496 64.524 35.0358 66.1892 37.4329C67.8543 39.8299 72.1003 46.2561 71.4531 51.4444L73.2519 50.7742Z" fill="#E6E6E6"/>
<path d="M75.7617 48.1487L77.1431 56.7827C77.2422 57.4096 77.204 58.0505 77.0319 58.6613C76.859 59.2721 76.5562 59.8384 76.1442 60.3209C75.7316 60.8035 75.2191 61.1911 74.6423 61.4569C74.0655 61.7227 73.4377 61.8604 72.8027 61.8606H71.3349C70.6998 61.8604 70.0721 61.7227 69.4953 61.4569C68.9185 61.1911 68.406 60.8035 67.9933 60.3209C67.5813 59.8384 67.2778 59.2721 67.1056 58.6613C66.9331 58.0505 66.8952 57.4096 66.9944 56.7827L68.3912 48.1487H75.7617Z" fill="#E6E6E6"/>
<path d="M158.396 60.1653H162.68V41.7539H158.396V60.1653Z" fill="#EBEBEB"/>
<path d="M137.672 60.1653H141.957V41.7539H137.672V60.1653Z" fill="#EBEBEB"/>
<path d="M111.018 59.4336L115.241 60.1609L118.371 42.0171L114.147 41.2898L111.018 59.4336Z" fill="#EBEBEB"/>
<path d="M153.084 60.1654H157.369V44.1826H153.084V60.1654Z" fill="#EBEBEB"/>
<path d="M143.236 60.1654H147.521V44.1826H143.236V60.1654Z" fill="#EBEBEB"/>
<path d="M118.361 60.1654H122.646V44.1826H118.361V60.1654Z" fill="#EBEBEB"/>
<path d="M128.582 59.2303L132.765 60.1591L136.235 44.557L132.052 43.6282L128.582 59.2303Z" fill="#EBEBEB"/>
<path d="M149.375 60.1654H151.521V40.8394H149.375V60.1654Z" fill="#EBEBEB"/>
<path d="M123.877 60.1654H126.024V40.8394H123.877V60.1654Z" fill="#EBEBEB"/>
<path d="M108.599 45.5544H87.7095V59.9602H108.599V45.5544Z" fill="#EBEBEB"/>
<path d="M180.24 51.4524H162.744V62.2074H180.24V51.4524Z" fill="#EBEBEB"/>
<path d="M176.152 41.9985H167.4V52.7536H176.152V41.9985Z" fill="#EBEBEB"/>
<path d="M322.353 27.7661H301.542V114.406H322.353V27.7661Z" fill="#E0E0E0"/>
<path d="M242.292 114.643H320.12V27.7739H242.292V114.643Z" fill="#E0E0E0"/>
<path d="M239.783 114.643H320.53V27.7739H239.783V114.643Z" fill="#F0F0F0"/>
<path d="M243.239 110.645H317.215V30.5337H243.239V110.645Z" fill="white"/>
<path d="M243.231 110.645H244.605V30.5337H243.231V110.645Z" fill="#E0E0E0"/>
<path d="M244.384 88.1492V90.3095H317.413V88.1492H244.384Z" fill="#E0E0E0"/>
<path d="M243.231 88.1411H318.368V84.5144H243.231V88.1411Z" fill="#F0F0F0"/>
<path d="M189.923 259C274.429 259 342.935 255.004 342.935 250.074C342.935 245.145 274.429 241.148 189.923 241.148C105.417 241.148 36.9111 245.145 36.9111 250.074C36.9111 255.004 105.417 259 189.923 259Z" fill="#F5F5F5"/>
<path d="M246.704 42.3691H105.514C102.323 42.3691 99.7368 44.9533 99.7368 48.141V214.245C99.7368 217.433 102.323 220.017 105.514 220.017H246.704C249.894 220.017 252.48 217.433 252.48 214.245V48.141C252.48 44.9533 249.894 42.3691 246.704 42.3691Z" fill="#407BFF"/>
<path opacity="0.6" d="M246.785 42.832H105.595C102.405 42.832 99.8184 45.4161 99.8184 48.6038V214.708C99.8184 217.896 102.405 220.48 105.595 220.48H246.785C249.975 220.48 252.562 217.896 252.562 214.708V48.6038C252.562 45.4161 249.975 42.832 246.785 42.832Z" fill="white"/>
<mask id="mask1_678_1565" style="mask-type:luminance" maskUnits="userSpaceOnUse" x="159" y="48" width="34" height="34">
<path d="M192.938 48.186H159.441V81.6486H192.938V48.186Z" fill="white"/>
</mask>
<g mask="url(#mask1_678_1565)">
<path d="M176.189 48.187C166.941 48.187 159.441 55.6774 159.441 64.9175C159.441 74.1578 166.94 81.6481 176.189 81.6481C185.44 81.6481 192.938 74.1578 192.938 64.9175C192.938 55.6774 185.44 48.187 176.189 48.187ZM176.189 53.1897C177.659 53.1895 179.067 53.7725 180.106 54.8103C181.146 55.848 181.729 57.2556 181.729 58.7232C181.73 60.191 181.146 61.5986 180.107 62.6365C179.068 63.6743 177.659 64.2575 176.19 64.2576C174.721 64.2577 173.312 63.6747 172.273 62.637C171.234 61.5993 170.651 60.1917 170.651 58.724C170.65 57.2563 171.234 55.8487 172.272 54.8108C173.311 53.7729 174.72 53.1897 176.189 53.1897ZM176.186 77.2738C173.251 77.2772 170.412 76.2312 168.182 74.3251C167.922 74.1043 167.714 73.8292 167.571 73.52C167.428 73.2102 167.354 72.8735 167.353 72.5329C167.353 69.4336 169.864 66.9533 172.967 66.9533H179.413C182.517 66.9533 185.018 69.4336 185.018 72.5329C185.018 72.8735 184.945 73.2102 184.801 73.5194C184.659 73.8292 184.45 74.1036 184.19 74.3245C181.961 76.2312 179.121 77.2772 176.186 77.2738Z" fill="white"/>
</g>
<path d="M225.06 182.571H127.165C125.685 182.571 124.485 183.77 124.485 185.248V197.556C124.485 199.035 125.685 200.233 127.165 200.233H225.06C226.54 200.233 227.74 199.035 227.74 197.556V185.248C227.74 183.77 226.54 182.571 225.06 182.571Z" fill="#0A66C2"/>
<path opacity="0.5" d="M197.563 147.692H128.764C128.23 147.727 127.696 147.651 127.193 147.471C126.69 147.29 126.23 147.008 125.84 146.642C125.45 146.276 125.14 145.834 124.928 145.343C124.715 144.851 124.605 144.322 124.605 143.787C124.605 143.252 124.715 142.722 124.928 142.231C125.14 141.74 125.45 141.298 125.84 140.932C126.23 140.566 126.69 140.284 127.193 140.103C127.696 139.922 128.23 139.847 128.764 139.882H197.563C198.553 139.946 199.483 140.386 200.161 141.111C200.839 141.836 201.217 142.793 201.217 143.787C201.217 144.781 200.839 145.738 200.161 146.463C199.483 147.188 198.553 147.627 197.563 147.692Z" fill="white"/>
<path opacity="0.5" d="M227.175 99.5057H128.764C128.23 99.5405 127.696 99.4649 127.193 99.2848C126.69 99.1041 126.23 98.8217 125.84 98.4563C125.45 98.0902 125.14 97.6478 124.928 97.1566C124.715 96.6654 124.605 96.136 124.605 95.6006C124.605 95.0659 124.715 94.5358 124.928 94.0453C125.14 93.554 125.45 93.1117 125.84 92.7456C126.23 92.3795 126.69 92.0977 127.193 91.917C127.696 91.7364 128.23 91.6614 128.764 91.6955H227.175C228.165 91.7598 229.094 92.1995 229.772 92.9249C230.451 93.6497 230.829 94.6068 230.829 95.6006C230.829 96.5951 230.451 97.5515 229.772 98.2769C229.094 99.0024 228.165 99.4414 227.175 99.5057Z" fill="white"/>
<path opacity="0.5" d="M174.194 115.568H128.764C128.23 115.602 127.696 115.528 127.193 115.347C126.69 115.166 126.23 114.884 125.84 114.518C125.45 114.152 125.14 113.71 124.928 113.219C124.715 112.727 124.605 112.198 124.605 111.663C124.605 111.128 124.715 110.598 124.928 110.107C125.14 109.616 125.45 109.174 125.84 108.808C126.23 108.442 126.69 108.16 127.193 107.979C127.696 107.798 128.23 107.723 128.764 107.758H174.194C175.185 107.822 176.113 108.261 176.792 108.987C177.47 109.712 177.848 110.669 177.848 111.663C177.848 112.657 177.47 113.613 176.792 114.339C176.113 115.064 175.185 115.503 174.194 115.568Z" fill="white"/>
<path opacity="0.5" d="M174.194 163.754H128.764C128.23 163.789 127.696 163.714 127.193 163.533C126.69 163.352 126.23 163.07 125.84 162.704C125.45 162.338 125.14 161.896 124.928 161.405C124.715 160.913 124.605 160.384 124.605 159.849C124.605 159.314 124.715 158.784 124.928 158.293C125.14 157.802 125.45 157.36 125.84 156.994C126.23 156.628 126.69 156.346 127.193 156.165C127.696 155.984 128.23 155.909 128.764 155.944H174.194C175.185 156.008 176.113 156.448 176.792 157.173C177.47 157.898 177.848 158.855 177.848 159.849C177.848 160.843 177.47 161.8 176.792 162.525C176.113 163.25 175.185 163.689 174.194 163.754Z" fill="white"/>
<path opacity="0.5" d="M209.049 177.347H144.273C143.985 177.365 143.696 177.327 143.424 177.234C143.152 177.141 142.902 176.996 142.691 176.809C142.48 176.621 142.313 176.394 142.198 176.142C142.082 175.89 142.023 175.618 142.023 175.344C142.023 175.069 142.082 174.798 142.198 174.545C142.313 174.294 142.48 174.067 142.691 173.879C142.902 173.691 143.152 173.546 143.424 173.454C143.696 173.361 143.985 173.323 144.273 173.34H209.049C209.584 173.373 210.087 173.598 210.454 173.97C210.821 174.343 211.025 174.834 211.025 175.344C211.025 175.854 210.821 176.345 210.454 176.717C210.087 177.089 209.584 177.314 209.049 177.347Z" fill="white"/>
<path opacity="0.5" d="M218.229 131.606H129.165C128.133 131.606 127.144 131.195 126.414 130.464C125.685 129.733 125.275 128.742 125.275 127.709C125.275 126.675 125.685 125.683 126.414 124.953C127.144 124.222 128.133 123.812 129.165 123.812H218.229C219.26 123.812 220.25 124.222 220.979 124.953C221.709 125.683 222.118 126.675 222.118 127.709C222.118 128.742 221.709 129.733 220.979 130.464C220.25 131.195 219.26 131.606 218.229 131.606Z" fill="white"/>
<path d="M100.305 194.336C100.305 194.336 95.0809 189.983 90.6065 194.336C86.1314 198.688 85.2559 225.647 85.2559 225.647" stroke="#407BFF" stroke-width="0.94" stroke-miterlimit="10"/>
<path d="M84.8843 230.851C84.8843 230.851 87.97 199.217 76.3696 185.906" stroke="#407BFF" stroke-width="0.94" stroke-miterlimit="10"/>
<path d="M85.9892 227.515C85.9892 227.515 83.6218 191.497 92.3026 183.509" stroke="#407BFF" stroke-width="0.94" stroke-miterlimit="10"/>
<path d="M84.8846 227.516C84.8846 227.516 84.6877 203.719 78.2243 200.021C71.7609 196.323 68.4702 208.387 68.4702 208.387" stroke="#407BFF" stroke-width="0.94" stroke-miterlimit="10"/>
<path d="M87.4416 227.516C87.4416 227.516 86.3838 209.246 91.3874 202.718C96.3904 196.189 101.647 205.516 101.647 205.516" stroke="#407BFF" stroke-width="0.94" stroke-miterlimit="10"/>
<path d="M85.6977 229.968C85.6977 229.968 88.9327 187.231 83.5747 179.993" stroke="#407BFF" stroke-width="0.94" stroke-miterlimit="10"/>
<path d="M72.6919 203.482C72.6919 203.482 75.9115 204.673 74.9569 207.472C74.0022 210.271 63.806 214.884 63.806 214.884C63.806 214.884 59.5366 210.981 63.4587 204.633C67.3807 198.286 72.6055 201.479 72.6919 203.482Z" fill="#407BFF"/>
<path opacity="0.2" d="M72.6919 203.482C72.6919 203.482 75.9115 204.673 74.9569 207.472C74.0022 210.271 63.806 214.884 63.806 214.884C63.806 214.884 59.5366 210.981 63.4587 204.633C67.3807 198.286 72.6055 201.479 72.6919 203.482Z" fill="black"/>
<path d="M86.7 198.152C86.7 198.152 83.2667 198.01 83.0697 200.959C82.8721 203.908 90.4877 212.092 90.4877 212.092C90.4877 212.092 95.9329 210.121 94.7652 202.749C93.5969 195.376 87.5521 196.331 86.7 198.152Z" fill="#407BFF"/>
<path opacity="0.2" d="M86.7 198.152C86.7 198.152 83.2667 198.01 83.0697 200.959C82.8721 203.908 90.4877 212.092 90.4877 212.092C90.4877 212.092 95.9329 210.121 94.7652 202.749C93.5969 195.376 87.5521 196.331 86.7 198.152Z" fill="black"/>
<path d="M89.6042 184.006C89.6042 184.006 87.315 183.762 87.4966 182.374C87.6781 180.986 96.3905 177.399 101.528 183.163C101.528 183.163 98.2374 188.808 93.4864 188.887C88.7359 188.966 89.6042 184.006 89.6042 184.006Z" fill="#407BFF"/>
<path opacity="0.2" d="M89.6042 184.006C89.6042 184.006 87.315 183.762 87.4966 182.374C87.6781 180.986 96.3905 177.399 101.528 183.163C101.528 183.163 98.2374 188.808 93.4864 188.887C88.7359 188.966 89.6042 184.006 89.6042 184.006Z" fill="black"/>
<path d="M85.3426 180.623C85.3426 180.623 87.41 181.625 87.9941 180.348C88.5777 179.07 83.0776 171.43 75.6515 173.63C75.6515 173.63 75.4539 180.158 79.4473 182.737C83.4407 185.315 85.3426 180.623 85.3426 180.623Z" fill="#407BFF"/>
<path opacity="0.2" d="M85.3426 180.623C85.3426 180.623 87.41 181.625 87.9941 180.348C88.5777 179.07 83.0776 171.43 75.6515 173.63C75.6515 173.63 75.4539 180.158 79.4473 182.737C83.4407 185.315 85.3426 180.623 85.3426 180.623Z" fill="black"/>
<path d="M96.17 202.363C96.17 202.363 94.5917 201.085 96.296 200.462C98.0002 199.84 106.358 200.02 106.445 208.292C106.445 208.292 96.7066 209.908 95.5068 206.754C94.307 203.6 96.17 202.363 96.17 202.363Z" fill="#407BFF"/>
<path opacity="0.2" d="M96.17 202.363C96.17 202.363 94.5917 201.085 96.296 200.462C98.0002 199.84 106.358 200.02 106.445 208.292C106.445 208.292 96.7066 209.908 95.5068 206.754C94.307 203.6 96.17 202.363 96.17 202.363Z" fill="black"/>
<path d="M76.2829 183.801C76.2829 183.801 77.8612 182.524 76.1563 181.909C74.452 181.294 66.0946 181.459 66.0078 189.731C66.0078 189.731 75.7463 191.355 76.9454 188.201C78.1453 185.047 76.2829 183.801 76.2829 183.801Z" fill="#407BFF"/>
<path opacity="0.2" d="M76.2829 183.801C76.2829 183.801 77.8612 182.524 76.1563 181.909C74.452 181.294 66.0946 181.459 66.0078 189.731C66.0078 189.731 75.7463 191.355 76.9454 188.201C78.1453 185.047 76.2829 183.801 76.2829 183.801Z" fill="black"/>
<path d="M81.4597 190.464C81.4597 190.464 81.6017 188.887 80.347 189.526C79.0922 190.164 74.7437 194.832 79.2577 199.287C79.2577 199.287 85.3419 194.785 84.2452 192.443C83.1486 190.101 81.4597 190.464 81.4597 190.464Z" fill="#407BFF"/>
<path opacity="0.2" d="M81.4597 190.464C81.4597 190.464 81.6017 188.887 80.347 189.526C79.0922 190.164 74.7437 194.832 79.2577 199.287C79.2577 199.287 85.3419 194.785 84.2452 192.443C83.1486 190.101 81.4597 190.464 81.4597 190.464Z" fill="black"/>
<path d="M97.5904 192.672C97.5904 192.672 96.6431 191.434 98.0326 191.284C99.4213 191.135 105.609 192.782 104.164 198.964C104.164 198.964 96.6197 198.397 96.2727 195.81C95.9257 193.224 97.5904 192.672 97.5904 192.672Z" fill="#407BFF"/>
<path opacity="0.2" d="M97.5904 192.672C97.5904 192.672 96.6431 191.434 98.0326 191.284C99.4213 191.135 105.609 192.782 104.164 198.964C104.164 198.964 96.6197 198.397 96.2727 195.81C95.9257 193.224 97.5904 192.672 97.5904 192.672Z" fill="black"/>
<path d="M73.2526 250.452H97.6451L100.889 226.75H70.0088L73.2526 250.452Z" fill="#263238"/>
<path opacity="0.2" d="M73.2526 250.452H97.6451L100.889 226.75H70.0088L73.2526 250.452Z" fill="white"/>
<path d="M103.951 224.827V227.082C103.951 227.806 103.663 228.5 103.151 229.011C102.639 229.523 101.945 229.81 101.221 229.81H69.3773C68.6531 229.81 67.9591 229.523 67.4466 229.011C66.9346 228.5 66.647 227.806 66.647 227.082V224.827H103.951Z" fill="#263238"/>
<path d="M307.209 0.176674H284.536C282.686 0.176674 280.912 0.911048 279.603 2.21823C278.295 3.52542 277.56 5.29833 277.56 7.14698V26.8594C277.559 27.7754 277.739 28.6826 278.089 29.5292C278.439 30.3757 278.953 31.1451 279.601 31.7932C280.248 32.4412 281.018 32.9554 281.865 33.3062C282.712 33.6569 283.62 33.8375 284.536 33.8375H291.157L289.579 40.0587L295.892 33.8375H307.248C309.101 33.8375 310.877 33.1023 312.187 31.7937C313.497 30.485 314.233 28.71 314.233 26.8594V7.14698C314.233 6.22762 314.051 5.31735 313.697 4.46858C313.343 3.61981 312.825 2.8493 312.173 2.20142C311.52 1.55356 310.745 1.04111 309.893 0.693615C309.042 0.346123 308.129 0.170434 307.209 0.176674Z" fill="#FFEFD0"/>
<path d="M303.838 24.8662C308.232 20.4752 308.232 13.356 303.838 8.96494C299.443 4.57388 292.318 4.57387 287.922 8.96487C283.528 13.3559 283.528 20.4752 287.922 24.8662C292.318 29.2573 299.443 29.2572 303.838 24.8662Z" fill="#F2B035"/>
<path d="M294.693 21.9391C294.543 21.94 294.395 21.9079 294.258 21.8453C294.122 21.7827 294.001 21.6908 293.904 21.5764L289.492 16.3802C289.399 16.2775 289.327 16.157 289.282 16.026C289.236 15.8951 289.218 15.7563 289.227 15.6179C289.236 15.4796 289.273 15.3445 289.335 15.2207C289.398 15.0969 289.485 14.987 289.591 14.8975C289.697 14.808 289.82 14.7407 289.952 14.6998C290.085 14.6587 290.224 14.6448 290.363 14.6588C290.501 14.6729 290.634 14.7145 290.756 14.7813C290.878 14.8481 290.985 14.9387 291.071 15.0476L294.693 19.3134L300.683 12.2642C300.863 12.0659 301.113 11.9451 301.38 11.9273C301.647 11.9095 301.911 11.9962 302.116 12.169C302.321 12.3418 302.451 12.5872 302.477 12.8536C302.504 13.1199 302.427 13.3864 302.261 13.5968L295.482 21.5764C295.386 21.6917 295.265 21.7841 295.129 21.8468C294.992 21.9095 294.844 21.9411 294.693 21.9391Z" fill="white"/>
<path d="M303.279 121.699C303.279 121.699 289.54 119.965 268.721 125.642C268.721 125.642 265.375 88.4723 265.77 83.3625C266.164 78.2535 297.912 79.7512 297.912 79.7512C297.912 79.7512 298.702 94.63 300.77 103.603C302.837 112.577 304.352 119.973 303.279 121.699Z" fill="#407BFF"/>
<path opacity="0.2" d="M303.279 121.699C303.279 121.699 289.54 119.965 268.721 125.642C268.721 125.642 265.375 88.4723 265.77 83.3625C266.164 78.2535 297.912 79.7512 297.912 79.7512C297.912 79.7512 298.702 94.63 300.77 103.603C302.837 112.577 304.352 119.973 303.279 121.699Z" fill="black"/>
<path d="M258.683 244.752L264.286 246.336L265.62 237.623L266.338 232.963L260.735 231.379L259.78 237.623L258.683 244.752Z" fill="#E4897B"/>
<path d="M290.897 245.209L296.674 245.974L296.729 237.623L296.768 232.435L290.984 231.678L290.945 237.623L290.897 245.209Z" fill="#E4897B"/>
<path opacity="0.2" d="M290.984 231.678L290.944 237.623H296.729L296.769 232.435L290.984 231.678Z" fill="black"/>
<path opacity="0.2" d="M259.78 237.624H265.62L266.338 232.964L260.736 231.379L259.78 237.624Z" fill="black"/>
<path d="M233.808 86.4143L228.245 84.7739L229.263 91.1211C229.263 91.1211 234.313 92.2802 234.787 89.6548L233.808 86.4143Z" fill="#E4897B"/>
<path d="M222.689 86.2411L225.42 91.4057L229.263 91.114L228.245 84.7661L222.689 86.2411Z" fill="#E4897B"/>
<path d="M241.487 88.0306L232.348 85.9888L231.52 90.4199L239.814 92.4464L241.487 88.0306Z" fill="#E4897B"/>
<path d="M269.132 84.0332L268.595 84.6716C267.443 86.0202 264.649 89.2767 261.737 92.0836C259.37 94.3704 257.002 96.3648 255.424 96.767C250.95 97.9181 234.685 93.1323 234.685 93.1323L236.366 86.5402C236.366 86.5402 251.518 88.5513 252.693 88.5513C253.586 88.5513 262.803 75.2098 265.036 74.1135L269.132 84.0332Z" fill="#0A66C2"/>
<path opacity="0.2" d="M268.595 84.6717C267.443 86.0203 264.649 89.2768 261.737 92.0837C262.321 87.4632 264.018 83.2208 266.251 80.5398C266.46 80.2815 266.698 80.0485 266.962 79.8464L268.595 84.6717Z" fill="black"/>
<path d="M258.754 243.877L265.115 243.711C265.23 243.708 265.342 243.743 265.434 243.812C265.526 243.88 265.591 243.979 265.62 244.09L266.961 249.207C266.993 249.33 266.997 249.458 266.973 249.582C266.949 249.706 266.897 249.823 266.821 249.925C266.746 250.026 266.648 250.11 266.535 250.168C266.423 250.227 266.299 250.26 266.172 250.264C263.876 250.264 260.554 250.264 257.673 250.319C254.295 250.414 252.149 250.248 248.203 250.319C245.835 250.382 245.046 248 246.056 247.756C250.578 246.636 253.537 246.857 257.389 244.334C257.795 244.063 258.266 243.906 258.754 243.877Z" fill="#263238"/>
<path d="M258.202 244.697C257.271 244.902 255.613 245.177 254.95 244.634C254.854 244.554 254.777 244.452 254.728 244.337C254.679 244.222 254.657 244.097 254.666 243.971C254.666 243.896 254.685 243.822 254.723 243.757C254.76 243.692 254.814 243.638 254.879 243.601C255.582 243.183 257.957 244.311 258.233 244.437C258.257 244.449 258.277 244.469 258.292 244.493C258.305 244.516 258.312 244.543 258.312 244.57C258.311 244.601 258.299 244.63 258.279 244.653C258.259 244.676 258.231 244.691 258.202 244.697ZM255.045 243.821H254.998C254.971 243.837 254.949 243.858 254.934 243.885C254.919 243.911 254.911 243.941 254.91 243.971C254.904 244.053 254.917 244.135 254.949 244.21C254.98 244.286 255.03 244.352 255.092 244.405C255.463 244.712 256.426 244.744 257.705 244.491C256.781 244.105 255.495 243.656 255.061 243.821H255.045Z" fill="#407BFF"/>
<path d="M258.201 244.697H258.107C257.389 244.397 255.952 243.183 256.031 242.528C256.031 242.37 256.157 242.174 256.537 242.126C256.675 242.108 256.817 242.117 256.953 242.154C257.088 242.19 257.215 242.253 257.326 242.339C258.115 242.931 258.296 244.484 258.312 244.547C258.315 244.571 258.311 244.595 258.301 244.617C258.291 244.639 258.276 244.659 258.257 244.673L258.201 244.697ZM256.434 242.433C256.316 242.473 256.307 242.536 256.307 242.56C256.261 242.954 257.239 243.916 257.973 244.326C257.888 243.663 257.595 243.045 257.136 242.56C257.058 242.494 256.967 242.446 256.87 242.419C256.771 242.392 256.669 242.386 256.568 242.402C256.522 242.406 256.477 242.417 256.434 242.433Z" fill="#407BFF"/>
<path d="M291.125 243.876L297.486 243.711C297.602 243.707 297.715 243.742 297.809 243.811C297.902 243.88 297.969 243.978 298 244.09L299.333 249.207C299.367 249.329 299.372 249.458 299.348 249.583C299.325 249.708 299.272 249.826 299.197 249.928C299.12 250.029 299.022 250.113 298.909 250.171C298.796 250.229 298.671 250.261 298.544 250.264C296.247 250.264 292.925 250.264 290.037 250.319C286.666 250.413 284.513 250.248 280.567 250.319C278.199 250.381 277.41 248 278.42 247.756C282.942 246.636 285.893 246.857 289.745 244.334C290.155 244.06 290.632 243.902 291.125 243.876Z" fill="#263238"/>
<path d="M290.581 244.697C289.65 244.902 287.985 245.177 287.33 244.634C287.233 244.554 287.157 244.452 287.108 244.337C287.058 244.222 287.037 244.097 287.045 243.971C287.045 243.896 287.065 243.822 287.102 243.757C287.14 243.692 287.193 243.638 287.259 243.601C287.953 243.183 290.337 244.311 290.605 244.437C290.631 244.447 290.653 244.466 290.668 244.49C290.682 244.514 290.688 244.543 290.684 244.57C290.682 244.6 290.671 244.627 290.652 244.65C290.634 244.672 290.609 244.689 290.581 244.697ZM287.425 243.821H287.377C287.351 243.836 287.33 243.858 287.316 243.885C287.302 243.911 287.296 243.941 287.298 243.971C287.291 244.053 287.303 244.135 287.334 244.211C287.366 244.287 287.416 244.354 287.479 244.405C287.851 244.712 288.805 244.744 290.092 244.491C289.153 244.105 287.867 243.656 287.433 243.821H287.425Z" fill="#407BFF"/>
<path d="M290.581 244.697H290.479C289.769 244.397 288.325 243.183 288.411 242.528C288.411 242.371 288.53 242.174 288.909 242.126C289.047 242.108 289.189 242.116 289.325 242.153C289.46 242.189 289.587 242.253 289.698 242.339C290.25 242.953 290.595 243.726 290.684 244.547C290.688 244.571 290.685 244.596 290.675 244.618C290.665 244.641 290.649 244.659 290.629 244.673L290.581 244.697ZM288.806 242.433C288.695 242.473 288.688 242.537 288.688 242.56C288.632 242.954 289.619 243.916 290.352 244.326C290.262 243.666 289.97 243.049 289.516 242.56C289.438 242.495 289.347 242.448 289.249 242.42C289.151 242.393 289.048 242.387 288.948 242.402L288.806 242.433Z" fill="#407BFF"/>
<path d="M302.814 118.309C305.876 131.563 300.62 235.842 300.62 235.842H290.471L286.131 148.942L270.15 235.842L259.299 235.054C266.401 167.732 272.66 127.542 272.66 127.542V122.464L302.814 118.309Z" fill="#263238"/>
<path opacity="0.4" d="M259.299 235.054L270.15 235.842L282.729 167.432L286.131 148.942L290.471 235.842H300.62C300.62 235.842 305.876 131.563 302.814 118.309L272.644 122.464V127.542C272.644 127.542 266.393 167.732 259.299 235.054Z" fill="white"/>
<path d="M297.344 69.2173C297.033 75.5544 297.194 81.9063 297.826 88.22C298.252 92.6357 298.836 96.8065 299.459 100.568C300.92 109.391 302.576 116.007 302.814 118.317L272.644 122.472C261.643 91.7208 265.786 73.8532 265.786 73.8532C268.041 72.9229 270.353 72.1325 272.707 71.4881C273.204 71.3542 273.709 71.2277 274.23 71.1093C278.467 70.276 282.749 69.6864 287.054 69.3431C287.843 69.2722 288.703 69.2173 289.508 69.1778C293.628 68.9723 297.344 69.2173 297.344 69.2173Z" fill="#263238"/>
<path d="M281.198 55.3792C281.419 59.5976 281.869 67.5141 285.381 69.5246C285.381 69.5246 283.195 73.6799 278.467 74.1056C274.892 74.4215 275.129 70.8965 275.129 70.8965C277.197 69.3593 276.707 66.7493 275.129 63.8003L281.198 55.3792Z" fill="#E4897B"/>
<path opacity="0.2" d="M278.721 58.8169L275.153 63.8002C275.529 64.4818 275.846 65.1939 276.101 65.9292C277.758 65.2668 279.659 62.7752 279.383 60.9695C279.297 60.2173 279.072 59.4876 278.721 58.8169Z" fill="black"/>
<path d="M265.809 46.8869C265.123 49.0789 265.501 53.5733 268.555 52.1147C271.61 50.6559 266.992 43.1258 265.809 46.8869Z" fill="#263238"/>
<path d="M281.593 49.8517C281.932 55.4737 282.382 58.7459 279.928 61.9314C276.195 66.7176 268.967 64.9356 266.946 59.5108C265.131 54.6221 264.886 46.2483 270.103 43.4097C271.259 42.7811 272.556 42.456 273.872 42.4645C275.189 42.4732 276.481 42.8152 277.629 43.4588C278.777 44.1024 279.743 45.0265 280.436 46.1445C281.13 47.2626 281.528 48.5381 281.593 49.8517Z" fill="#E4897B"/>
<path d="M277.647 46.7923V40.4844C277.647 40.4844 284.339 39.9876 284.039 43.4097C287.748 45.2469 285.996 51.0108 281.017 53.8336C278.286 51.6494 278.602 46.3981 278.602 46.3981C278.31 46.5479 277.978 46.674 277.647 46.7923Z" fill="#263238"/>
<path d="M284.316 54.2357C284.186 54.9235 283.921 55.5785 283.535 56.1622C283.149 56.7458 282.649 57.2463 282.066 57.6342C280.488 58.6671 279.122 57.3976 279.068 55.6235C279.02 54.0465 279.77 51.5548 281.585 51.2394C281.982 51.1776 282.388 51.2151 282.767 51.3485C283.146 51.482 283.486 51.7072 283.756 52.004C284.027 52.3009 284.22 52.6601 284.317 53.0495C284.415 53.4391 284.414 53.8466 284.316 54.2357Z" fill="#E4897B"/>
<path d="M273.283 52.3592C273.338 52.8165 273.141 53.2107 272.841 53.2423C272.541 53.2739 272.257 52.9348 272.202 52.4538C272.147 51.9728 272.344 51.6022 272.636 51.5707C272.928 51.5392 273.228 51.8703 273.283 52.3592Z" fill="#263238"/>
<path d="M268.122 52.9346C268.177 53.392 267.98 53.7863 267.68 53.8178C267.38 53.8493 267.096 53.5103 267.04 53.0293C266.986 52.5483 267.182 52.1777 267.483 52.1462C267.782 52.1146 268.051 52.4774 268.122 52.9346Z" fill="#263238"/>
<path d="M269.787 52.9741C269.389 54.384 268.796 55.732 268.027 56.9797C268.368 57.1545 268.741 57.2553 269.123 57.2757C269.506 57.2961 269.888 57.2355 270.245 57.098L269.787 52.9741Z" fill="#DE5753"/>
<path d="M272.904 58.5647C272.709 58.6143 272.511 58.6512 272.312 58.6751C272.276 58.6751 272.242 58.661 272.217 58.6358C272.192 58.6107 272.178 58.5766 272.178 58.5411C272.178 58.5055 272.192 58.4714 272.217 58.4463C272.242 58.4211 272.276 58.407 272.312 58.407C272.878 58.3556 273.425 58.1719 273.908 57.8705C274.39 57.5692 274.795 57.1588 275.09 56.6723C275.097 56.6564 275.107 56.642 275.119 56.6301C275.132 56.6182 275.147 56.609 275.163 56.603C275.179 56.5971 275.196 56.5947 275.214 56.5957C275.231 56.5967 275.248 56.6014 275.263 56.6093C275.279 56.6168 275.294 56.6276 275.306 56.6409C275.318 56.6542 275.328 56.6697 275.333 56.6866C275.339 56.7035 275.342 56.7214 275.34 56.7393C275.339 56.7572 275.334 56.7746 275.326 56.7906C275.068 57.2385 274.72 57.6276 274.303 57.933C273.885 58.2386 273.409 58.4537 272.904 58.5647Z" fill="#263238"/>
<path d="M274.671 50.5219C274.624 50.533 274.574 50.5316 274.527 50.5177C274.48 50.5039 274.437 50.4782 274.403 50.443C274.175 50.1928 273.891 49.9992 273.575 49.8774C273.258 49.7556 272.917 49.709 272.58 49.7413C272.546 49.7493 272.509 49.7501 272.474 49.7435C272.439 49.7371 272.406 49.7234 272.376 49.7034C272.347 49.6834 272.321 49.6576 272.302 49.6275C272.283 49.5974 272.27 49.5637 272.264 49.5284C272.258 49.4937 272.258 49.458 272.265 49.4233C272.272 49.3886 272.286 49.3557 272.305 49.3264C272.325 49.2971 272.351 49.2719 272.38 49.2525C272.41 49.233 272.443 49.2196 272.477 49.213C272.903 49.1623 273.335 49.2138 273.738 49.3633C274.14 49.5128 274.5 49.7559 274.79 50.0725C274.816 50.0968 274.836 50.1261 274.85 50.1587C274.864 50.1912 274.872 50.2263 274.872 50.2617C274.872 50.2972 274.864 50.3322 274.85 50.3647C274.836 50.3973 274.816 50.4267 274.79 50.4509C274.756 50.483 274.715 50.5073 274.671 50.5219Z" fill="#263238"/>
<path d="M265.683 51.4129C265.632 51.4323 265.576 51.4323 265.525 51.4129C265.459 51.3896 265.404 51.341 265.373 51.2774C265.341 51.2139 265.337 51.1408 265.359 51.0739C265.49 50.668 265.716 50.2997 266.02 50.0004C266.324 49.701 266.696 49.4796 267.103 49.3549C267.173 49.3371 267.246 49.3475 267.308 49.3837C267.369 49.42 267.413 49.4791 267.431 49.5481C267.449 49.6171 267.438 49.6904 267.402 49.7517C267.366 49.8131 267.307 49.8576 267.238 49.8754C266.915 49.9747 266.622 50.1518 266.384 50.391C266.146 50.6303 265.97 50.9243 265.873 51.2473C265.857 51.2887 265.832 51.3256 265.799 51.3545C265.766 51.3834 265.726 51.4035 265.683 51.4129Z" fill="#263238"/>
<path d="M280.614 49.1264C280.614 49.1264 276.668 47.6835 274.869 45.3968C274.869 45.3968 271.286 46.3351 270.552 47.7623C270.217 47.4758 270.001 47.0755 269.944 46.6386C269.887 46.2018 269.994 45.7594 270.245 45.3968C270.245 45.3968 267.562 45.9646 267.032 47.7623C266.596 47.5549 266.238 47.2132 266.011 46.7874C265.784 46.3616 265.699 45.8742 265.77 45.3968C265.77 45.3968 264.578 45.8463 264.191 47.7623C264.191 47.7623 261.232 41.5963 271.01 39.8301C270.27 39.5792 269.495 39.4487 268.713 39.4437C268.713 39.4437 275.54 36.6919 280.945 39.2071C286.352 41.7225 285.412 46.5953 280.614 49.1264Z" fill="#263238"/>
<path d="M305.142 123.623L295.672 124.885C295.672 124.885 291.765 97.6109 290.045 88.8035V70.0056L294.993 68.7046L298.828 70.0056C299.88 73.7875 300.689 77.6324 301.251 81.5174C301.717 84.4668 302.135 87.6203 302.506 90.814C303.019 95.1668 303.445 99.5979 303.808 103.745C304.376 110.44 304.755 116.361 304.96 119.981C305.079 122.251 305.142 123.623 305.142 123.623Z" fill="#0A66C2"/>
<path d="M290.053 88.7876C290.053 88.7876 290.842 75.5171 295.001 68.6733C295.001 68.6733 294.898 66.7178 294.07 66.4024C293.241 66.087 290.053 67.9793 290.053 67.9793C290.053 67.9793 288.072 66.6231 287.638 67.2538C287.204 67.8849 286.146 72.0798 290.053 88.7876Z" fill="#407BFF"/>
<path opacity="0.7" d="M290.053 88.7876C290.053 88.7876 290.842 75.5171 295.001 68.6733C295.001 68.6733 294.898 66.7178 294.07 66.4024C293.241 66.087 290.053 67.9793 290.053 67.9793C290.053 67.9793 288.072 66.6231 287.638 67.2538C287.204 67.8849 286.146 72.0798 290.053 88.7876Z" fill="white"/>
<path d="M268.524 127.258L269.606 128.046C269.606 128.046 268.027 119.255 268.674 97.0193C268.674 95.9471 268.745 94.9138 268.785 93.9287C269.574 75.1147 272.51 71.6928 272.731 71.488L270 72.4183L265.052 74.1215C263.56 90.1675 268.524 127.258 268.524 127.258Z" fill="#0A66C2"/>
<path d="M268.95 90.6875C268.95 90.6875 266.22 77.7884 267.032 73.3412C267.846 68.894 270.757 70.873 270.757 70.873C270.757 70.873 273.433 68.7127 274.23 71.0939C274.23 71.0939 270.552 73.6798 268.95 90.6875Z" fill="#407BFF"/>
<path opacity="0.7" d="M268.95 90.6875C268.95 90.6875 266.22 77.7884 267.032 73.3412C267.846 68.894 270.757 70.873 270.757 70.873C270.757 70.873 273.433 68.7127 274.23 71.0939C274.23 71.0939 270.552 73.6798 268.95 90.6875Z" fill="white"/>
<path opacity="0.2" d="M302.49 90.7826C298.449 88.5192 297.912 82.6138 297.912 82.6138C298.157 82.5187 299.657 82.0068 301.235 81.4861C301.701 84.4348 302.119 87.589 302.49 90.7826Z" fill="black"/>
<path opacity="0.2" d="M282.729 167.432L286.131 148.942L285.475 139.157C285.475 139.157 280.811 156.125 282.729 167.432Z" fill="black"/>
<path opacity="0.2" d="M304.945 119.949C302.403 119.775 300.21 119.61 300.21 119.61L299.728 109.289C300.52 108.793 301.471 108.618 302.388 108.8C303.012 107.15 303.485 105.449 303.8 103.714C304.352 110.408 304.739 116.338 304.945 119.949Z" fill="black"/>
<path d="M305.812 103.706L300.864 111.646L304.779 113.893L309.427 106.734L305.812 103.706Z" fill="#E4897B"/>
<path d="M298.615 69.8799C301.945 70.2426 316.103 89.6549 316.726 95.5055C317.35 101.356 308.409 111.457 308.409 111.457L302.442 107.948C302.442 107.948 308.503 98.6362 308.819 96.1205C309.135 93.6055 297.732 83.4416 297.732 83.4416C296.869 81.1005 296.394 78.6343 296.327 76.1401C296.169 71.8669 298.615 69.8799 298.615 69.8799Z" fill="#0A66C2"/>
<path d="M299.72 109.297C299.72 109.297 304.81 110.384 306.862 113.586C306.862 113.586 304.731 120.248 303.208 120.974C301.685 121.699 297.913 121.699 297.913 121.699C297.913 121.699 297.668 114.287 299.72 109.297Z" fill="#407BFF"/>
<path d="M7.24207 130.614C7.24207 130.614 19.5165 129.065 38.115 134.137C38.115 134.137 41.1043 100.93 40.7518 96.3655C40.3992 91.8012 12.0362 93.1397 12.0362 93.1397C12.0362 93.1397 11.3312 106.432 9.48403 114.448C7.63685 122.464 6.28322 129.072 7.24207 130.614Z" fill="#D2D7DC"/>
<path opacity="0.2" d="M7.24207 130.614C7.24207 130.614 19.5165 129.065 38.115 134.137C38.115 134.137 41.1043 100.93 40.7518 96.3655C40.3992 91.8012 12.0362 93.1397 12.0362 93.1397C12.0362 93.1397 11.3312 106.432 9.48403 114.448C7.63685 122.464 6.28322 129.072 7.24207 130.614Z" fill="#D2D7DC"/>
<path d="M47.0828 240.546L42.0772 241.962L40.8857 234.178L40.2441 230.015L45.2497 228.599L46.1029 234.178L47.0828 240.546Z" fill="#D2D7DC"/>
<path d="M18.3039 240.955L13.1432 241.638L13.0938 234.178L13.0586 229.543L18.2264 228.867L18.2616 234.178L18.3039 240.955Z" fill="#D2D7DC"/>
<path opacity="0.2" d="M18.2259 228.867L18.2612 234.178H13.0934L13.0581 229.543L18.2259 228.867Z" fill="#D2D7DC"/>
<path opacity="0.2" d="M46.1024 234.179H40.8852L40.2437 230.015L45.2493 228.599L46.1024 234.179Z" fill="#D2D7DC"/>
<path d="M38.7055 121.883L34.5022 124.911L33.479 119.26C33.479 119.26 37.3926 116.789 38.5699 118.862L38.7055 121.883Z" fill="#D2D7DC"/>
<path d="M29.3848 125.319L30.1556 120.157L33.4814 119.267L34.5046 124.918L29.3848 125.319Z" fill="#D2D7DC"/>
<path d="M44.6987 118.249L37.6012 122.674L35.5894 119.183L41.9798 115.023L44.6987 118.249Z" fill="#D2D7DC"/>
<path d="M41.118 87.7642L41.6006 88.3317C42.6165 89.5477 45.0685 92.4938 47.1066 95.4766C48.7675 97.9026 50.1711 100.285 50.289 101.733C50.633 105.843 43.9749 119.436 43.9749 119.436L38.4157 116.968C38.4157 116.968 42.4601 103.939 42.6364 102.904C42.7701 102.12 32.3906 92.0099 31.7593 89.8803L41.118 87.7642Z" fill="#D2D7DC"/>
<path opacity="0.2" d="M38.2275 97.5352C39.2569 98.7392 41.7526 101.648 44.3542 104.156C43.8324 100.029 42.3166 96.2388 40.3214 93.8436C40.1354 93.6127 39.9224 93.4046 39.6869 93.2239L38.2275 97.5352Z" fill="#D2D7DC"/>
<path d="M47.0193 239.764L41.3368 239.616C41.2344 239.613 41.1339 239.645 41.0519 239.706C40.9699 239.768 40.9112 239.855 40.8857 239.954L39.6871 244.526C39.6585 244.636 39.6549 244.75 39.6766 244.861C39.6982 244.972 39.7446 245.077 39.8124 245.168C39.8801 245.258 39.9674 245.333 40.0677 245.385C40.1681 245.438 40.279 245.466 40.3921 245.47C42.4438 245.47 45.4119 245.47 47.9852 245.519C51.0027 245.604 52.9204 245.456 56.4455 245.519C58.5605 245.576 59.2656 243.449 58.3631 243.23C54.3233 242.23 51.6796 242.427 48.239 240.173C47.876 239.931 47.455 239.79 47.0193 239.764Z" fill="#D2D7DC"/>
<path d="M47.5128 240.497C48.3447 240.68 49.8253 240.927 50.4175 240.441C50.5038 240.369 50.5718 240.278 50.616 240.175C50.6601 240.073 50.6791 239.961 50.6712 239.849C50.6716 239.782 50.6541 239.716 50.6207 239.658C50.5872 239.6 50.5391 239.552 50.4809 239.518C49.8535 239.145 47.7314 240.152 47.4846 240.264C47.463 240.276 47.445 240.294 47.4326 240.315C47.4201 240.336 47.4137 240.36 47.4141 240.384C47.4152 240.412 47.4257 240.438 47.4436 240.458C47.4616 240.479 47.486 240.493 47.5128 240.497ZM50.3329 239.715H50.3752C50.3987 239.729 50.4182 239.748 50.4318 239.772C50.4455 239.795 50.4526 239.822 50.4527 239.849C50.4586 239.922 50.4469 239.995 50.4187 240.062C50.3905 240.13 50.3466 240.189 50.2906 240.236C49.9592 240.511 49.0991 240.539 47.9569 240.314C48.7818 239.969 49.931 239.567 50.3187 239.715H50.3329Z" fill="#D2D7DC"/>
<path d="M47.5129 240.497H47.5975C48.2391 240.23 49.5222 239.145 49.4517 238.56C49.4517 238.419 49.3389 238.243 49.0004 238.2C48.8762 238.184 48.75 238.193 48.629 238.226C48.508 238.258 48.3946 238.314 48.2954 238.391C47.5904 238.919 47.4283 240.307 47.4141 240.363C47.4121 240.385 47.4156 240.406 47.4242 240.426C47.4329 240.446 47.4464 240.463 47.4635 240.476L47.5129 240.497ZM49.0921 238.476C49.1979 238.511 49.2049 238.567 49.2049 238.588C49.2472 238.941 48.373 239.8 47.7173 240.166C47.793 239.574 48.0546 239.022 48.4646 238.588C48.5342 238.53 48.6156 238.487 48.7031 238.463C48.7907 238.438 48.8825 238.433 48.9722 238.447C49.0134 238.451 49.0537 238.46 49.0921 238.476Z" fill="#D2D7DC"/>
<path d="M18.0996 239.764L12.4171 239.616C12.3137 239.613 12.2121 239.645 12.1289 239.705C12.0458 239.767 11.9858 239.855 11.9588 239.954L10.7673 244.526C10.7372 244.636 10.7326 244.751 10.7537 244.862C10.7748 244.974 10.8212 245.08 10.8891 245.171C10.9571 245.262 11.0449 245.336 11.146 245.387C11.2471 245.44 11.3587 245.468 11.4723 245.47C13.5239 245.47 16.4921 245.47 19.0725 245.519C22.0829 245.604 24.0077 245.456 27.5327 245.519C29.6478 245.576 30.3528 243.449 29.4504 243.23C25.4106 242.23 22.7739 242.427 19.3333 240.173C18.9662 239.929 18.54 239.788 18.0996 239.764Z" fill="#D2D7DC"/>
<path d="M18.5858 240.497C19.4177 240.68 20.9053 240.927 21.4905 240.441C21.5768 240.369 21.6449 240.278 21.689 240.175C21.7331 240.073 21.7521 239.961 21.7443 239.849C21.7446 239.782 21.7271 239.716 21.6937 239.658C21.6603 239.6 21.612 239.552 21.554 239.518C20.9335 239.145 18.8043 240.152 18.5646 240.264C18.5412 240.274 18.5215 240.29 18.5087 240.313C18.496 240.334 18.4908 240.359 18.4942 240.384C18.496 240.41 18.5058 240.435 18.5222 240.455C18.5386 240.475 18.5608 240.49 18.5858 240.497ZM21.4059 239.715H21.4482C21.4714 239.728 21.4905 239.748 21.5029 239.772C21.5154 239.796 21.5209 239.823 21.5187 239.849C21.5258 239.922 21.5147 239.995 21.4864 240.063C21.4581 240.131 21.4135 240.19 21.3565 240.236C21.0252 240.511 20.1721 240.539 19.0229 240.314C19.8619 239.969 21.0111 239.567 21.3988 239.715H21.4059Z" fill="#D2D7DC"/>
<path d="M18.5859 240.497H18.6775C19.312 240.23 20.6022 239.145 20.5247 238.56C20.5247 238.419 20.4189 238.243 20.0805 238.2C19.9562 238.184 19.8298 238.192 19.7087 238.224C19.5876 238.257 19.4743 238.313 19.3755 238.391C18.8822 238.94 18.574 239.63 18.4942 240.363C18.4906 240.385 18.4934 240.407 18.5022 240.427C18.5109 240.447 18.5253 240.464 18.5436 240.476L18.5859 240.497ZM20.1721 238.475C20.2709 238.511 20.2779 238.567 20.2779 238.588C20.3273 238.941 19.446 239.8 18.7903 240.166C18.871 239.576 19.1319 239.025 19.5377 238.588C19.6075 238.53 19.6888 238.487 19.7763 238.463C19.8638 238.439 19.9555 238.433 20.0453 238.447L20.1721 238.475Z" fill="#D2D7DC"/>
<path d="M7.65776 127.585C4.92229 139.427 9.61775 232.587 9.61775 232.587H18.6843L22.5619 154.952L36.8386 232.587L46.5327 231.882C40.1875 171.739 34.5967 135.835 34.5967 135.835V131.298L7.65776 127.585Z" fill="#D2D7DC"/>
<path opacity="0.4" d="M46.5327 231.882L36.8386 232.587L25.6005 171.471L22.5619 154.952L18.6843 232.587H9.61775C9.61775 232.587 4.92229 139.427 7.65776 127.585L34.6107 131.298V135.835C34.6107 135.835 40.1945 171.739 46.5327 231.882Z" fill="#D2D7DC"/>
<path d="M12.544 83.728C12.8219 89.3899 12.6781 95.0645 12.1139 100.705C11.7332 104.649 11.2115 108.376 10.6546 111.736C9.35022 119.619 7.8697 125.529 7.6582 127.593L34.6112 131.305C44.4392 103.832 40.7378 87.87 40.7378 87.87C38.7225 87.0388 36.6575 86.3328 34.5548 85.7572C34.1106 85.6374 33.6594 85.5243 33.1941 85.4186C29.4086 84.6744 25.5834 84.1477 21.7375 83.8411C21.0325 83.7776 20.264 83.728 19.5448 83.6932C15.8646 83.5099 12.544 83.728 12.544 83.728Z" fill="#D2D7DC"/>
<path d="M26.9686 71.3657C26.7711 75.1343 26.3693 82.2069 23.2319 84.0032C23.2319 84.0032 25.1848 87.7155 29.4079 88.0956C32.6017 88.3774 32.3902 85.2286 32.3902 85.2286C30.543 83.8553 30.9801 81.5236 32.3902 78.8894L26.9686 71.3657Z" fill="#D2D7DC"/>
<path opacity="0.2" d="M29.1822 74.4368L32.3689 78.8886C32.0334 79.4976 31.7503 80.1341 31.5228 80.7906C30.0423 80.199 28.3432 77.9731 28.59 76.3602C28.6672 75.6883 28.868 75.0357 29.1822 74.4368Z" fill="#D2D7DC"/>
<path d="M40.7162 63.7793C41.3295 65.7376 40.9911 69.7527 38.2626 68.4497C35.5343 67.1467 39.6586 60.4192 40.7162 63.7793Z" fill="#D2D7DC"/>
<path d="M26.6162 66.4278C26.313 71.4505 25.9112 74.3738 28.1037 77.2194C31.4385 81.4953 37.8965 79.9031 39.7014 75.0571C41.3229 70.6895 41.5414 63.2086 36.8813 60.6727C35.8483 60.1111 34.6896 59.8206 33.5136 59.8283C32.3377 59.8359 31.1829 60.1415 30.1573 60.7165C29.1317 61.2915 28.2689 62.117 27.6496 63.1159C27.0303 64.1148 26.6747 65.2542 26.6162 66.4278Z" fill="#D2D7DC"/>
<path d="M30.141 63.6947V58.0593C30.141 58.0593 24.1624 57.6156 24.4304 60.6727C21.1167 62.314 22.6819 67.4632 27.1306 69.985C29.57 68.0341 29.288 63.3425 29.288 63.3425C29.5488 63.4763 29.8449 63.589 30.141 63.6947Z" fill="#D2D7DC"/>
<path d="M24.1837 70.3443C24.299 70.9586 24.5361 71.5436 24.8812 72.0649C25.2263 72.5869 25.6723 73.034 26.193 73.38C27.6031 74.3029 28.8228 73.1692 28.8721 71.5837C28.9145 70.1749 28.2447 67.949 26.6231 67.6673C26.2685 67.6124 25.9056 67.6458 25.567 67.765C25.2284 67.8841 24.9247 68.0855 24.683 68.3506C24.4414 68.6156 24.2692 68.9368 24.1821 69.2848C24.095 69.6322 24.0956 69.9962 24.1837 70.3443Z" fill="#D2D7DC"/>
<path d="M34.0395 68.6677C33.9902 69.076 34.1665 69.4287 34.4344 69.4568C34.7023 69.4849 34.956 69.1817 35.0054 68.7521C35.0548 68.3224 34.8785 67.9911 34.6177 67.963C34.3568 67.9349 34.0889 68.2307 34.0395 68.6677Z" fill="#D2D7DC"/>
<path d="M38.6509 69.1818C38.6015 69.5907 38.7778 69.9428 39.0457 69.9709C39.3136 69.999 39.5674 69.6965 39.6167 69.2668C39.6661 68.8365 39.4898 68.5059 39.2219 68.4778C38.954 68.4497 38.7143 68.7736 38.6509 69.1818Z" fill="#D2D7DC"/>
<path d="M37.1628 69.2173C37.519 70.4768 38.0481 71.6808 38.735 72.7958C38.4309 72.9517 38.0972 73.0421 37.7558 73.0601C37.4143 73.0782 37.0729 73.024 36.7539 72.9015L37.1628 69.2173Z" fill="#D2D7DC"/>
<path d="M34.3783 74.212C34.5522 74.2561 34.7288 74.2889 34.907 74.3104C34.9388 74.3104 34.9693 74.2976 34.9918 74.2749C35.0142 74.2528 35.0269 74.222 35.0269 74.1906C35.0269 74.1584 35.0142 74.1283 34.9918 74.1056C34.9693 74.0835 34.9388 74.0708 34.907 74.0708C34.4008 74.0246 33.9123 73.8606 33.4812 73.5916C33.0502 73.3225 32.6884 72.9558 32.4253 72.5208C32.4193 72.5067 32.4104 72.494 32.3991 72.4833C32.3879 72.4726 32.3746 72.4646 32.3601 72.4592C32.3455 72.4539 32.33 72.4518 32.3146 72.4525C32.2991 72.4539 32.284 72.4579 32.2702 72.4646C32.2557 72.4713 32.2427 72.4813 32.232 72.4927C32.2213 72.5047 32.2131 72.5188 32.2078 72.5335C32.2025 72.5489 32.2004 72.5649 32.2014 72.581C32.2025 72.5971 32.2066 72.6125 32.2138 72.6265C32.4444 73.0267 32.756 73.3747 33.1287 73.6471C33.5013 73.9202 33.9269 74.1123 34.3783 74.212Z" fill="#D2D7DC"/>
<path d="M32.7989 67.0262C32.8415 67.0363 32.886 67.0349 32.928 67.0229C32.97 67.0102 33.0081 66.9874 33.0386 66.9559C33.2428 66.7324 33.4962 66.5594 33.7789 66.4505C34.0615 66.3417 34.3657 66.3001 34.6672 66.3289C34.6983 66.3361 34.7305 66.3368 34.7619 66.3309C34.7933 66.3251 34.8231 66.3129 34.8496 66.2951C34.876 66.2773 34.8985 66.2542 34.9157 66.2273C34.9328 66.2004 34.9442 66.1702 34.9492 66.1387C34.9553 66.1077 34.9553 66.0758 34.949 66.0449C34.9427 66.0139 34.9304 65.9845 34.9127 65.9583C34.895 65.9321 34.8723 65.9096 34.8459 65.8922C34.8195 65.8749 34.7899 65.8629 34.7588 65.857C34.3782 65.8117 33.9923 65.8577 33.633 65.9913C33.2738 66.1248 32.9515 66.342 32.6931 66.6248C32.6701 66.6466 32.6517 66.6727 32.6391 66.7018C32.6266 66.7309 32.6201 66.7622 32.6201 66.7939C32.6201 66.8255 32.6266 66.8568 32.6391 66.8859C32.6517 66.915 32.6701 66.9412 32.6931 66.9626C32.7232 66.9914 32.7593 67.0135 32.7989 67.0262Z" fill="#D2D7DC"/>
<path d="M27.4904 65.7796C27.4904 65.7796 31.0155 64.4905 32.623 62.4477C32.623 62.4477 35.8238 63.286 36.4795 64.561C36.7786 64.305 36.9722 63.9473 37.023 63.5571C37.0738 63.1669 36.9781 62.7716 36.7544 62.4477C36.7544 62.4477 39.1515 62.9549 39.6239 64.561C40.0134 64.3757 40.3332 64.0704 40.5363 63.69C40.7393 63.3096 40.8149 62.8742 40.7519 62.4477C40.7519 62.4477 38.1222 67.5288 42.1619 64.561C42.1619 64.561 44.8058 59.0524 36.0705 57.4745C34.7634 57.2384 33.5514 56.7462 34.2493 56.7416C34.9473 56.7372 31.3662 54.2379 26.5368 56.485C21.7074 58.7321 17.5389 68.0421 27.4904 65.7796Z" fill="#D2D7DC"/>
<path d="M5.57812 132.333L14.0384 133.46C14.0384 133.46 17.5283 109.095 19.0652 101.226V84.4328L14.6447 83.2703L11.2183 84.4328C10.2786 87.8111 9.55566 91.2464 9.05389 94.7171C8.63793 97.352 8.26425 100.17 7.93291 103.023C7.47461 106.911 7.0939 110.869 6.76959 114.574C6.262 120.556 5.9236 125.845 5.74029 129.078C5.63454 131.108 5.57812 132.333 5.57812 132.333Z" fill="#D2D7DC"/>
<path d="M19.0582 101.212C19.0582 101.212 18.3531 89.3563 14.6377 83.2421C14.6377 83.2421 14.7293 81.4953 15.4696 81.2136C16.2099 80.9318 19.0582 82.6223 19.0582 82.6223C19.0582 82.6223 20.8278 81.411 21.2155 81.9745C21.6033 82.538 22.548 86.2851 19.0582 101.212Z" fill="#D2D7DC"/>
<path opacity="0.7" d="M19.0582 101.212C19.0582 101.212 18.3531 89.3563 14.6377 83.2421C14.6377 83.2421 14.7293 81.4953 15.4696 81.2136C16.2099 80.9318 19.0582 82.6223 19.0582 82.6223C19.0582 82.6223 20.8278 81.411 21.2155 81.9745C21.6033 82.538 22.548 86.2851 19.0582 101.212Z" fill="#D2D7DC"/>
<path d="M38.2909 135.581L37.3251 136.285C37.3251 136.285 38.7351 128.431 38.157 108.566C38.157 107.608 38.0936 106.685 38.0583 105.804C37.3533 88.9969 34.7306 85.9398 34.5332 85.7571L36.9726 86.5883L41.3931 88.1095C42.7255 102.445 38.2909 135.581 38.2909 135.581Z" fill="#D2D7DC"/>
<path d="M37.9104 102.909C37.9104 102.909 40.3498 91.3856 39.6236 87.4122C38.8974 83.4396 36.2959 85.2077 36.2959 85.2077C36.2959 85.2077 33.9059 83.2776 33.1938 85.4051C33.1938 85.4051 36.4792 87.7154 37.9104 102.909Z" fill="#D2D7DC"/>
<path opacity="0.7" d="M37.9104 102.909C37.9104 102.909 40.3498 91.3856 39.6236 87.4122C38.8974 83.4396 36.2959 85.2077 36.2959 85.2077C36.2959 85.2077 33.9059 83.2776 33.1938 85.4051C33.1938 85.4051 36.4792 87.7154 37.9104 102.909Z" fill="#D2D7DC"/>
<path opacity="0.2" d="M7.94727 102.994C11.557 100.973 12.0365 95.6962 12.0365 95.6962C11.8179 95.6119 10.4784 95.1541 9.06831 94.689C8.65236 97.3231 8.27868 100.141 7.94727 102.994Z" fill="#D2D7DC"/>
<path opacity="0.2" d="M25.6006 171.471L22.562 154.952L23.1472 146.21C23.1472 146.21 27.3139 161.369 25.6006 171.471Z" fill="#D2D7DC"/>
<path opacity="0.2" d="M5.75439 129.05C8.0246 128.896 9.98452 128.748 9.98452 128.748L10.4146 119.527C9.70711 119.085 8.85738 118.928 8.03867 119.09C7.48082 117.617 7.05844 116.096 6.77667 114.546C6.28317 120.527 5.93771 125.825 5.75439 129.05Z" fill="#D2D7DC"/>
<path d="M11.5456 115.007L17.2824 121.087L14.2517 123.746L8.91553 118.296L11.5456 115.007Z" fill="#D2D7DC"/>
<path d="M11.8689 84.1135C9.01649 85.0184 0.049518 104.517 0.537739 109.751C1.02596 114.984 10.6417 122.252 10.6417 122.252L15.2463 118.127C15.2463 118.127 8.29244 111.042 7.57141 108.894C6.8503 106.747 15.0403 95.8348 15.0403 95.8348C15.3816 93.6316 15.3611 91.3883 14.9798 89.1925C14.3626 85.4219 11.8689 84.1135 11.8689 84.1135Z" fill="#D2D7DC"/>
<path d="M17.8689 118.828C17.8689 118.828 13.6036 120.679 12.3726 123.844C12.3726 123.844 15.4163 129.303 16.8785 129.67C18.3405 130.036 21.644 129.371 21.644 129.371C21.644 129.371 20.5481 122.836 17.8689 118.828Z" fill="#D2D7DC"/>
<path d="M22.9123 61.1077C20.6468 65.257 22.1918 69.6911 23.4284 73.9268C23.9426 75.6882 24.978 77.0682 26.1383 78.4101C26.7552 79.1235 27.3364 79.5632 28.1026 80.0859C28.5001 80.3576 29.2008 80.5985 29.3642 81.0884" stroke="#D2D7DC" stroke-width="3" stroke-linecap="round"/>
<path d="M23.8159 64.0728C24.0429 65.8114 24.3235 67.5456 24.626 69.2723C24.9891 71.345 25.1943 73.7817 26.3035 75.6389C26.7106 76.3202 27.1351 76.8308 27.6584 77.4218C28.6243 78.5126 27.0374 75.7038 26.9988 75.6389C25.7721 73.5649 24.1882 71.7131 23.0703 69.5728C22.6601 68.7871 22.0534 67.4539 22.3821 66.5507C22.454 66.3532 23.7442 65.1041 23.8016 65.2329C23.9016 65.4579 23.8128 66.1122 23.8159 66.3072C23.835 67.5095 23.9476 68.6579 24.3464 69.8023C25.0346 71.776 26.046 73.6351 26.7551 75.6027C26.8666 75.9119 27.3477 76.8736 27.0921 77.2143C26.7808 77.6292 26.1022 76.4259 25.9809 76.2619C25.0534 75.0064 24.3598 73.3922 23.7586 71.9506C23.2865 70.8189 23.5086 72.3595 23.5578 72.7671C23.574 72.9003 23.7345 74.6785 24.2245 74.5072C25.2389 74.1525 24.8482 71.4059 24.8482 70.5184" stroke="#D2D7DC" stroke-width="3" stroke-linecap="round"/>
</g>
</g>
<defs>
<clipPath id="clip0_678_1565">
<rect width="343" height="259" fill="white"/>
</clipPath>
</defs>
</svg>
